<svg xmlns="http://www.w3.org/2000/svg" viewBox="0 0 320 240" fill="none" stroke-linecap="round" stroke-linejoin="round">
  <!-- 翻开的书 -->
  <path d="M160 148c-30-15-62-15-92 0v54c30-15 62-15 92 0 30-15 62-15 92 0v-54c-30-15-62-15-92 0z" fill="#FFFFFF" stroke="#3E453F" stroke-width="2"/>
  <path d="M160 148v54" stroke="#3E453F" stroke-width="2"/>
  <path d="M86 164q26-8 56 0M86 178q26-8 56 0M178 164q26-8 56 0M178 178q26-8 56 0" stroke="#E7EAE4" stroke-width="5"/>
  <!-- 对话气泡 -->
  <g>
    <rect x="96" y="52" width="74" height="38" rx="12" fill="#F4F1FE" stroke="#8B5CF6" stroke-width="2"/>
    <path d="M118 90l8 14 10-14" fill="#F4F1FE" stroke="#8B5CF6" stroke-width="2"/>
    <path d="M112 71h42M112 80h28" stroke="#C4B5FD" stroke-width="5"/>
  </g>
  <!-- 紫色 ✦ 星光 -->
  <path d="M214 60l4 10 10 4-10 4-4 10-4-10-10-4 10-4z" fill="#A78BFA"/>
  <path d="M238 88l3 7 7 3-7 3-3 7-3-7-7-3 7-3z" fill="#C4B5FD"/>
  <path d="M84 100l2.5 6 6 2.5-6 2.5-2.5 6-2.5-6-6-2.5 6-2.5z" fill="#C4B5FD"/>
  <circle cx="240" cy="128" r="3" stroke="#C4B5FD" stroke-width="2"/>
</svg>
