<svg xmlns="http://www.w3.org/2000/svg" viewBox="0 0 320 240" fill="none" stroke-linecap="round" stroke-linejoin="round">
  <!-- 斜放的空白便签纸 -->
  <g transform="rotate(-6 160 122)">
    <rect x="98" y="48" width="128" height="142" rx="10" fill="#FFFFFF" stroke="#3E453F" stroke-width="2"/>
    <line x1="118" y1="82" x2="202" y2="82" stroke="#E7EAE4" stroke-width="7"/>
    <line x1="118" y1="106" x2="190" y2="106" stroke="#E7EAE4" stroke-width="7"/>
    <line x1="118" y1="130" x2="198" y2="130" stroke="#E7EAE4" stroke-width="7"/>
    <line x1="118" y1="154" x2="168" y2="154" stroke="#E7EAE4" stroke-width="7"/>
  </g>
  <!-- 铅笔 -->
  <g transform="rotate(24 238 178)">
    <rect x="231" y="136" width="13" height="66" rx="3" fill="#F59E0B" stroke="#3E453F" stroke-width="2"/>
    <rect x="231" y="136" width="13" height="10" rx="3" fill="#FBBF24" stroke="#3E453F" stroke-width="2"/>
    <path d="M231 202l6.5 14 6.5-14z" fill="#F4E3C2" stroke="#3E453F" stroke-width="2"/>
    <path d="M235.2 211.5l2.3 4.5 2.3-4.5z" fill="#3E453F"/>
  </g>
  <!-- 飘散的虚线墨迹 -->
  <path d="M58 66q14 8 8 22" stroke="#C4C9C3" stroke-width="2" stroke-dasharray="3 7"/>
  <path d="M74 44q18 4 20 20" stroke="#D9DED5" stroke-width="2" stroke-dasharray="3 7"/>
  <circle cx="54" cy="100" r="3" stroke="#C4C9C3" stroke-width="2"/>
  <circle cx="264" cy="76" r="4" stroke="#D9DED5" stroke-width="2"/>
  <path d="M256 96q10 4 12 14" stroke="#C4C9C3" stroke-width="2" stroke-dasharray="3 7"/>
</svg>
