<svg xmlns="http://www.w3.org/2000/svg" viewBox="0 0 320 240" fill="none" stroke-linecap="round" stroke-linejoin="round">
  <!-- 报告纸叠层 -->
  <rect x="96" y="66" width="136" height="120" rx="10" transform="rotate(4 164 126)" fill="#FAFBF9" stroke="#C4C9C3" stroke-width="2"/>
  <rect x="88" y="58" width="136" height="120" rx="10" transform="rotate(-2 156 118)" fill="#FAFBF9" stroke="#C4C9C3" stroke-width="2"/>
  <!-- 最上面的报告 -->
  <rect x="92" y="52" width="136" height="120" rx="10" fill="#FFFFFF" stroke="#3E453F" stroke-width="2"/>
  <path d="M110 78h56" stroke="#E7EAE4" stroke-width="7"/>
  <!-- 蓝色折线图 -->
  <path d="M110 148v-34h84" stroke="#E7EAE4" stroke-width="2"/>
  <path d="M114 138l16-14 14 8 18-20 14 10" stroke="#4A6FA5" stroke-width="3"/>
  <circle cx="114" cy="138" r="3.5" fill="#E1EAF4" stroke="#4A6FA5" stroke-width="2"/>
  <circle cx="144" cy="132" r="3.5" fill="#E1EAF4" stroke="#4A6FA5" stroke-width="2"/>
  <circle cx="176" cy="122" r="3.5" fill="#E1EAF4" stroke="#4A6FA5" stroke-width="2"/>
  <path d="M110 158h48" stroke="#E7EAE4" stroke-width="7"/>
  <!-- 「已完成」圆形印章 -->
  <g transform="rotate(-12 206 158)">
    <circle cx="206" cy="158" r="22" stroke="#EF4444" stroke-width="2" opacity=".85"/>
    <circle cx="206" cy="158" r="17.5" stroke="#EF4444" stroke-width="1" opacity=".5"/>
    <text x="206" y="162" text-anchor="middle" font-size="11" fill="#EF4444" opacity=".9" font-family="'Noto Sans SC',sans-serif" font-weight="700">已完成</text>
  </g>
</svg>
