<svg xmlns="http://www.w3.org/2000/svg" viewBox="0 0 64 64" fill="none">
  <rect width="64" height="64" rx="14" fill="#22B462"/>
  <!-- 便签纸轮廓线 -->
  <path d="M19 31h26v15a3 3 0 0 1-3 3H22a3 3 0 0 1-3-3V31z" stroke="rgba(255,255,255,.38)" stroke-width="2" stroke-linecap="round" stroke-linejoin="round"/>
  <path d="M25 39h14M25 44h9" stroke="rgba(255,255,255,.38)" stroke-width="2" stroke-linecap="round"/>
  <!-- 白色两叶嫩芽 -->
  <path d="M32 31V21" stroke="#FFFFFF" stroke-width="2.5" stroke-linecap="round"/>
  <path d="M32 23c0-6 4-10 11-10 0 6-4 10-11 10z" fill="#FFFFFF"/>
  <path d="M32 25c0-5-3.5-8.5-9-8.5 0 5 3.5 8.5 9 8.5z" fill="#D7F5E1"/>
</svg>
