<svg xmlns="http://www.w3.org/2000/svg" viewBox="0 0 240 240" fill="none" stroke-linecap="round" stroke-linejoin="round">
  <!-- 头顶两片叶子 -->
  <path d="M120 86c-2-18 8-30 27-32 1 17-9 30-27 32z" fill="#47C87B" stroke="#0F7A42" stroke-width="2"/>
  <path d="M120 88c0-15-8-25-23-26 0 15 8 25 23 26z" fill="#7DDBA2" stroke="#0F7A42" stroke-width="2"/>
  <path d="M120 92v-6" stroke="#0F7A42" stroke-width="2"/>
  <!-- 圆滚滚身体 -->
  <ellipse cx="120" cy="142" rx="62" ry="56" fill="#D7F5E1" stroke="#0F7A42" stroke-width="2.5"/>
  <!-- 眯眼微笑 -->
  <path d="M94 138q6 7 12 0" stroke="#0F7A42" stroke-width="2.5"/>
  <path d="M134 138q6 7 12 0" stroke="#0F7A42" stroke-width="2.5"/>
  <path d="M112 154q8 8 16 0" stroke="#0F7A42" stroke-width="2.5"/>
  <!-- 腮红 -->
  <circle cx="90" cy="150" r="5.5" fill="#B0EAC5"/>
  <circle cx="150" cy="150" r="5.5" fill="#B0EAC5"/>
  <!-- 左手（挥舞） -->
  <path d="M62 132q-12-4-16-14" stroke="#0F7A42" stroke-width="2.5"/>
  <!-- 右手握迷你铅笔 -->
  <path d="M178 150q12 2 16 10" stroke="#0F7A42" stroke-width="2.5"/>
  <g transform="rotate(28 196 156)">
    <rect x="190" y="134" width="11" height="34" rx="2.5" fill="#F59E0B" stroke="#0F7A42" stroke-width="2"/>
    <rect x="190" y="134" width="11" height="6" rx="2.5" fill="#FBBF24" stroke="#0F7A42" stroke-width="2"/>
    <path d="M190 168l5.5 11 5.5-11z" fill="#F4E3C2" stroke="#0F7A42" stroke-width="2"/>
    <path d="M193.6 175.5l1.9 3.5 1.9-3.5z" fill="#3E453F"/>
  </g>
  <!-- 脚底影子 -->
  <ellipse cx="120" cy="204" rx="38" ry="6" fill="#EDFBF1"/>
</svg>
